<?xml version="1.0" standalone="no"?>
<!DOCTYPE svg PUBLIC "-//W3C//DTD SVG 1.1//EN" "http://www.w3.org/Graphics/SVG/1.1/DTD/svg11.dtd" >
<svg xmlns="http://www.w3.org/2000/svg">
<metadata></metadata>
<defs>
<font id="SerifaLightRegular" horiz-adv-x="1024" >
<font-face units-per-em="2048" ascent="1638" descent="-410" />
<missing-glyph horiz-adv-x="516" />
<glyph horiz-adv-x="0" />
<glyph horiz-adv-x="2048" />
<glyph unicode=" "  horiz-adv-x="516" />
<glyph unicode="&#x09;" horiz-adv-x="516" />
<glyph unicode="&#xa0;" horiz-adv-x="516" />
<glyph unicode="!" horiz-adv-x="544" d="M199 1323h145l-31 -1024h-84zM203 0v141h137v-141h-137z" />
<glyph unicode="&#x22;" horiz-adv-x="550" d="M100 881v553h86v-553h-86zM365 881v553h86v-553h-86z" />
<glyph unicode="#" horiz-adv-x="1574" d="M129 494l31 90h336l100 282h-360l28 90h365l176 498h110l-174 -498h271l176 498h110l-174 -498h322l-31 -90h-323l-101 -282h348l-30 -90h-351l-174 -494h-112l176 494h-270l-179 -494h-110l174 494h-334zM610 584h269l100 282h-270z" />
<glyph unicode="$" horiz-adv-x="1032" d="M90 0v385h92q56 -264 295 -291v545l-94 33q-150 52 -217.5 125.5t-67.5 191.5q0 153 99 240.5t280 93.5v180h66v-178q157 -12 280 -129v127h95v-365h-91q-22 131 -90.5 201.5t-193.5 87.5v-510l67 -22q175 -59 253.5 -139.5t78.5 -217.5q0 -160 -104.5 -254.5 t-294.5 -101.5v-192h-66v192q-181 21 -291 160v-162h-96zM211 1004q0 -150 201 -220l65 -24v487q-120 -6 -193 -75t-73 -168zM543 92q131 3 206.5 74t75.5 188q0 94 -58 151t-189 101l-35 10v-524z" />
<glyph unicode="%" horiz-adv-x="1568" d="M162 1006q0 171 60.5 258.5t178.5 87.5q238 0 238 -346q0 -344 -238 -344q-239 0 -239 344zM256 1010q0 -269 145 -269q144 0 144 269q0 266 -144 266q-145 0 -145 -266zM375 -29l729 1381h88l-729 -1381h-88zM926 315q0 171 60.5 259t178.5 88q119 0 179.5 -87.5 t60.5 -259.5q0 -344 -240 -344q-239 0 -239 344zM1022 319q0 -268 143 -268q146 0 146 268q0 267 -146 267q-143 0 -143 -267z" />
<glyph unicode="&#x26;" horiz-adv-x="1458" d="M100 362q0 125 77 219t235 167l-50 49q-71 75 -105 139t-34 139q0 123 89 197t243 74q151 0 236.5 -74t85.5 -203q0 -108 -69.5 -193.5t-213.5 -156.5l379 -391q104 168 104 346v18h-149v86h438v-86h-182q-6 -242 -144 -436l166 -166h205v-90h-272l-166 166 q-104 -100 -208.5 -147.5t-225.5 -47.5q-200 0 -319.5 107t-119.5 284zM221 358q0 -131 89.5 -214t230.5 -83q96 0 182 43.5t178 133.5l-414 432q-266 -111 -266 -312zM334 1081q0 -92 117 -215l69 -73q127 61 186.5 127.5t59.5 154.5t-55.5 136.5t-159.5 48.5 q-100 0 -158.5 -50t-58.5 -129z" />
<glyph unicode="'" horiz-adv-x="284" d="M100 881v553h86v-553h-86z" />
<glyph unicode="(" horiz-adv-x="563" d="M115 496q0 422 297 850h90q-275 -417 -275 -850q0 -435 275 -852h-90q-297 428 -297 852z" />
<glyph unicode=")" horiz-adv-x="563" d="M61 -356q275 417 275 852q0 433 -275 850h91q297 -428 297 -850q0 -424 -297 -852h-91z" />
<glyph unicode="*" d="M195 1055l43 110l241 -110l-24 268h118l-28 -268l241 110l43 -110l-262 -70l185 -190l-93 -76l-147 223l-147 -223l-93 76l185 190z" />
<glyph unicode="+" horiz-adv-x="1705" d="M254 569v80h559v570h80v-570h559v-80h-559v-569h-80v569h-559z" />
<glyph unicode="," horiz-adv-x="516" d="M156 -256l94 260h-62v137h138v-141l-93 -256h-77z" />
<glyph unicode="-" horiz-adv-x="669" d="M98 420v98h473v-98h-473z" />
<glyph unicode="." horiz-adv-x="516" d="M188 0v141h138v-141h-138z" />
<glyph unicode="/" horiz-adv-x="669" d="M-43 -190l594 1542h98l-594 -1542h-98z" />
<glyph unicode="0" horiz-adv-x="1032" d="M84 662q0 688 432 688q430 0 430 -688q0 -691 -430 -691q-214 0 -323 173.5t-109 517.5zM203 664q0 -598 313 -598t313 598t-313 598t-313 -598z" />
<glyph unicode="1" horiz-adv-x="1032" d="M201 944v121q156 111 325 258h107v-1233h196v-90h-522v90h211v1104q-140 -134 -317 -250z" />
<glyph unicode="2" horiz-adv-x="1032" d="M76 0v158l325 307q203 192 291 310t88 229q0 116 -73.5 186t-196.5 70q-126 0 -204.5 -82.5t-84.5 -225.5h-117q1 184 113 292t301 108q171 0 276 -94.5t105 -245.5q0 -67 -27 -137t-60.5 -125t-117.5 -144.5t-142 -145.5t-189 -179l-48 -45l-145 -138h655v203h90v-301 h-839z" />
<glyph unicode="3" horiz-adv-x="1032" d="M98 369h117q7 -145 83 -224t200 -79q142 0 221.5 80t79.5 219q0 127 -88.5 195t-257.5 69v94h28q147 0 229.5 72.5t82.5 199.5q0 121 -74 194t-201 73q-124 0 -202 -75t-91 -212h-110q10 175 118 276t283 101q178 0 282.5 -96.5t104.5 -260.5q0 -125 -71.5 -208.5 t-204.5 -112.5q137 -25 211.5 -110t74.5 -216q0 -168 -108.5 -272.5t-286.5 -104.5q-199 0 -305.5 101.5t-114.5 296.5z" />
<glyph unicode="4" horiz-adv-x="1032" d="M55 379v141l600 803h138v-856h182v-88h-182v-289h180v-90h-506v90h213v289h-625zM143 467h537v731l-537 -719v-12z" />
<glyph unicode="5" horiz-adv-x="1032" d="M102 348h113q12 -142 82.5 -211t202.5 -69q142 0 228.5 98t86.5 264q0 146 -82.5 235t-212.5 89q-109 0 -183.5 -53t-103.5 -152h-110l31 774h723v-94h-629l-23 -524q132 141 310 141t288.5 -114t110.5 -302q0 -210 -121 -334.5t-324 -124.5q-177 0 -276 96.5t-111 280.5 z" />
<glyph unicode="6" horiz-adv-x="1032" d="M96 567q0 386 124.5 585.5t361.5 199.5q157 0 243.5 -85.5t98.5 -252.5h-107q-7 121 -66.5 184.5t-164.5 63.5q-170 0 -266 -161.5t-105 -473.5q120 211 352 211q172 0 274.5 -114t102.5 -306q0 -204 -110 -325.5t-297 -121.5q-224 0 -332.5 148t-108.5 448zM231 399 q0 -152 83.5 -246t217.5 -94q133 0 214 94t81 250q0 165 -76.5 256t-207.5 91q-134 0 -223 -97.5t-89 -253.5z" />
<glyph unicode="7" horiz-adv-x="1032" d="M82 993v330h868v-119l-536 -1204h-127l553 1223h-658v-230h-100z" />
<glyph unicode="8" horiz-adv-x="1032" d="M98 344q0 264 273 344q-121 37 -185.5 118.5t-64.5 197.5q0 153 108 250.5t287 97.5q191 0 295 -91t104 -255q0 -123 -65 -206t-186 -114q126 -32 195 -123t69 -225q0 -164 -112 -265.5t-300 -101.5q-191 0 -304.5 102t-113.5 271zM215 346q0 -121 84.5 -203t218.5 -82 q130 0 209.5 79t79.5 216t-76.5 213t-212.5 76t-219.5 -83t-83.5 -216zM233 1004q0 -120 80.5 -197.5t208.5 -77.5q134 0 207.5 74t73.5 203q0 124 -75.5 194t-211.5 70q-125 0 -204 -73.5t-79 -192.5z" />
<glyph unicode="9" horiz-adv-x="1032" d="M80 903q0 205 110 327t297 122q224 0 333.5 -148t109.5 -448q0 -386 -124.5 -585.5t-361.5 -199.5q-157 0 -244.5 84.5t-99.5 251.5h109q7 -121 66.5 -184.5t164.5 -63.5q170 0 265 162t104 475q-121 -213 -350 -213q-172 0 -275.5 114t-103.5 306zM199 920 q0 -165 76.5 -257t207.5 -92q134 0 223 97.5t89 253.5q0 152 -83.5 247t-217.5 95q-133 0 -214 -94t-81 -250z" />
<glyph unicode=":" horiz-adv-x="516" d="M188 0v141h138v-141h-138zM188 782v142h138v-142h-138z" />
<glyph unicode=";" horiz-adv-x="516" d="M156 -256l92 260h-60v137h138v-141l-93 -256h-77zM188 782v142h138v-142h-138z" />
<glyph unicode="&#x3c;" horiz-adv-x="1705" d="M264 580v61l1178 483v-90l-1045 -424l1045 -424v-88z" />
<glyph unicode="=" horiz-adv-x="1705" d="M254 389v80h1198v-80h-1198zM254 752v79h1198v-79h-1198z" />
<glyph unicode="&#x3e;" horiz-adv-x="1705" d="M264 98v88l1045 424l-1045 424v90l1178 -483v-61z" />
<glyph unicode="?" horiz-adv-x="899" d="M63 985q6 179 103 271t278 92q173 0 277 -97t104 -250q0 -90 -37 -159t-116 -142l-129 -118q-52 -50 -72 -106.5t-20 -145.5v-35h-119v20q0 116 23 189.5t83 126.5l162 145q105 91 105 228q0 114 -73.5 182.5t-195.5 68.5q-119 0 -185 -68.5t-73 -201.5h-115zM322 0v141 h139v-141h-139z" />
<glyph unicode="@" horiz-adv-x="2048" d="M121 522q0 329 198 572q143 175 344.5 265.5t450.5 90.5q162 0 306.5 -45t246.5 -123q128 -98 194 -226.5t66 -277.5q0 -169 -63 -308t-181 -232q-139 -111 -305 -111q-192 0 -192 145q0 11 4 39q-49 -89 -125 -136.5t-166 -47.5q-154 0 -233.5 83t-79.5 243 q0 151 62.5 276.5t168 196.5t230.5 71q194 0 256 -170l61 129h80l-137 -553q-21 -80 -21 -108q0 -43 30.5 -67.5t86.5 -24.5q98 0 203 76q100 73 161.5 205.5t61.5 283.5q0 271 -199 438.5t-526 167.5q-336 0 -569 -192q-310 -257 -310 -672q0 -325 220.5 -521t592.5 -196 q160 0 323 50t300 143l29 -45q-296 -220 -648 -220q-375 0 -620 185q-301 228 -301 616zM690 446q0 -116 57.5 -180.5t159.5 -64.5q111 0 196 72.5t116 193.5l63 254q-45 203 -233 203q-152 0 -255.5 -138.5t-103.5 -339.5z" />
<glyph unicode="A" horiz-adv-x="1435" d="M14 0v86h115l522 1237h140l514 -1237h116v-86h-442v86h192l-153 383h-608l-160 -383h192v-86h-428zM444 555h539l-268 664z" />
<glyph unicode="B" horiz-adv-x="1236" d="M72 0v86h182v1151h-182v86h594q211 0 318.5 -84t107.5 -246q0 -211 -244 -303q136 -29 208 -111t72 -208q0 -175 -120 -273t-342 -98h-594zM373 86h293q166 0 253 77t87 220q0 135 -82.5 196.5t-257.5 61.5h-293v-555zM373 727h293q141 0 222 72.5t81 193.5 q0 123 -74 183.5t-229 60.5h-293v-510z" />
<glyph unicode="C" horiz-adv-x="1349" d="M92 664q0 321 166.5 504.5t448.5 183.5q268 0 438 -185v156h100v-459h-100q-4 184 -120.5 291t-311.5 107q-233 0 -365.5 -157t-132.5 -441q0 -285 136 -444t374 -159q168 0 269 98.5t126 286.5h123q-49 -475 -543 -475q-282 0 -445 184.5t-163 508.5z" />
<glyph unicode="D" horiz-adv-x="1366" d="M72 0v86h182v1151h-182v86h512q336 0 513 -170.5t177 -490.5t-177 -491t-513 -171h-512zM373 86h211q273 0 420 150.5t147 427.5t-146.5 425t-420.5 148h-211v-1151z" />
<glyph unicode="E" horiz-adv-x="1261" d="M72 0v86h182v1151h-182v86h1048v-389h-98v303h-649v-518h336v215h98v-514h-98v213h-336v-547h649v334h98v-420h-1048z" />
<glyph unicode="F" horiz-adv-x="1138" d="M72 0v86h182v1151h-182v86h1011v-389h-98v303h-612v-543h336v215h98v-514h-98v213h-336v-522h225v-86h-526z" />
<glyph unicode="G" horiz-adv-x="1462" d="M92 664q0 306 170.5 491.5t452.5 185.5q133 0 243.5 -53t184.5 -155v190h100v-465h-100q-4 182 -120 287.5t-310 105.5q-228 0 -363 -156.5t-135 -430.5q0 -278 136.5 -435t373.5 -157q183 0 296.5 106t113.5 273v118h-207v86h499v-86h-170v-569h-118v195 q-75 -110 -178 -161.5t-248 -51.5q-286 0 -453.5 182.5t-167.5 499.5z" />
<glyph unicode="H" horiz-adv-x="1488" d="M72 0v86h182v1151h-182v86h499v-86h-198v-522h743v522h-198v86h499v-86h-182v-1151h182v-86h-499v86h198v543h-743v-543h198v-86h-499z" />
<glyph unicode="I" horiz-adv-x="653" d="M84 0v86h182v1151h-182v86h485v-86h-184v-1151h184v-86h-485z" />
<glyph unicode="J" horiz-adv-x="964" d="M63 352q0 27 3 54h118q-2 -20 -2 -58q0 -141 56 -214t163 -73q136 0 184 81t48 264v831h-205v86h465v-86h-141v-831q0 -231 -78.5 -333t-272.5 -102q-338 0 -338 381z" />
<glyph unicode="K" horiz-adv-x="1230" d="M72 0v86h182v1151h-182v86h499v-86h-198v-1151h198v-86h-499zM373 723l583 514h-159v86h426v-86h-113l-590 -516l615 -635h96v-86h-418v86h170z" />
<glyph unicode="L" horiz-adv-x="1144" d="M72 0v86h182v1151h-182v86h540v-86h-239v-1151h602v311h98v-397h-1001z" />
<glyph unicode="M" horiz-adv-x="1798" d="M55 0v86h195v1151h-195v86h410l428 -1190l440 1190h410v-86h-199v-1151h199v-86h-506v86h188v1151h-18l-467 -1237h-100l-461 1237h-10v-1151h172v-86h-486z" />
<glyph unicode="N" horiz-adv-x="1492" d="M74 0v86h172v1151h-172v86h352l719 -1190v1104h-193v86h488v-86h-176v-1237h-162l-737 1221v-1135h196v-86h-487z" />
<glyph unicode="O" horiz-adv-x="1458" d="M92 662q0 329 167.5 509.5t469.5 180.5t469.5 -180.5t167.5 -509.5q0 -328 -168 -509.5t-469 -181.5q-300 0 -468.5 181t-168.5 510zM215 664q0 -289 134.5 -446t379.5 -157t379.5 157.5t134.5 445.5t-134.5 443t-379.5 155t-379.5 -155t-134.5 -443z" />
<glyph unicode="P" horiz-adv-x="1185" d="M72 0v86h182v1151h-182v86h524q259 0 378.5 -89.5t119.5 -297.5q0 -96 -39 -175t-111 -130q-58 -40 -139.5 -54t-208.5 -14h-223v-477h241v-86h-542zM373 649h223q195 0 285 68t90 219q0 161 -88.5 231t-286.5 70h-223v-588z" />
<glyph unicode="Q" horiz-adv-x="1470" d="M92 662q0 329 168 509.5t469 180.5t469 -180.5t168 -509.5q0 -425 -319 -584q85 12 190 12h221v-90h-422q-39 0 -158.5 -13.5t-199.5 -13.5q-266 0 -426 186t-160 503zM215 664q0 -290 133 -445.5t381 -155.5q245 0 379.5 156.5t134.5 444.5t-134.5 443t-379.5 155 t-379.5 -155t-134.5 -443z" />
<glyph unicode="R" horiz-adv-x="1249" d="M72 0v86h182v1151h-182v86h612q204 0 308 -88t104 -260q0 -144 -76.5 -228t-224.5 -104q83 -12 132 -63t79 -152l100 -342h113v-86h-205l-119 397q-14 49 -31 83.5t-41 58.5t-49 38t-65 21.5t-78.5 9.5t-98.5 2h-159v-524h198v-86h-499zM373 696h274q167 0 246.5 68.5 t79.5 210.5q0 262 -307 262h-293v-541z" />
<glyph unicode="S" horiz-adv-x="1120" d="M127 0v442h100q0 -178 87.5 -273t248.5 -95q154 0 237 71.5t83 198.5q0 98 -58 153t-196 103l-201 68q-154 53 -226.5 132t-72.5 199q0 152 110 244t302 92q225 0 342 -143v131h98v-430h-98v16q0 165 -89.5 250.5t-256.5 85.5q-136 0 -210.5 -60t-74.5 -169 q0 -88 48.5 -141.5t158.5 -92.5l205 -71q91 -32 151 -63t105 -73.5t65.5 -97.5t20.5 -129q0 -164 -110.5 -264t-299.5 -100q-123 0 -211 36t-158 117v-137h-100z" />
<glyph unicode="T" horiz-adv-x="1189" d="M37 934v389h1116v-389h-98v303h-402v-1151h213v-86h-544v86h213v1151h-400v-303h-98z" />
<glyph unicode="U" horiz-adv-x="1411" d="M63 1237v86h467v-86h-200v-801q0 -172 101 -273.5t274 -101.5t273.5 101.5t100.5 273.5v801h-198v86h467v-86h-150v-780q0 -227 -132 -356.5t-361 -129.5t-361.5 129.5t-132.5 356.5v780h-148z" />
<glyph unicode="V" horiz-adv-x="1318" d="M14 1237v86h408v-86h-174l407 -1118l420 1118h-174v86h404v-86h-103l-479 -1237h-137l-469 1237h-103z" />
<glyph unicode="W" horiz-adv-x="1787" d="M25 1237v86h426v-86h-201l244 -1116l327 1202h160l309 -1198l262 1112h-206v86h417v-86h-104l-295 -1237h-156l-315 1210l-330 -1210h-153l-281 1237h-104z" />
<glyph unicode="X" horiz-adv-x="1316" d="M4 0v86h115l461 594l-424 557h-131v86h456v-86h-184l354 -463l365 463h-182v86h458v-86h-131l-442 -553l463 -598h102v-86h-430v86h176l-387 504l-391 -504h184v-86h-432z" />
<glyph unicode="Y" horiz-adv-x="1208" d="M14 1237v86h389v-86h-165l364 -575l371 575h-166v86h387v-86h-88l-453 -684v-467h217v-86h-551v86h216v467l-433 684h-88z" />
<glyph unicode="Z" horiz-adv-x="1234" d="M106 0v145l879 1092h-764v-270h-98v356h983v-127l-889 -1110h809v285h98v-371h-1018z" />
<glyph unicode="[" horiz-adv-x="563" d="M193 -322v1645h258v-76h-156v-1489h156v-80h-258z" />
<glyph unicode="\" horiz-adv-x="669" d="M18 1352h101l594 -1542h-99z" />
<glyph unicode="]" horiz-adv-x="563" d="M113 -242h155v1489h-155v76h258v-1645h-258v80z" />
<glyph unicode="^" horiz-adv-x="2048" d="M424 901l539 557h118l541 -557h-125l-473 469l-475 -469h-125z" />
<glyph unicode="_" d="M0 -403h1024v-80h-1024v80z" />
<glyph unicode="`" d="M285 1407h133l215 -348h-80z" />
<glyph unicode="a" horiz-adv-x="1062" d="M96 256q0 150 114 227.5t339 77.5q46 0 207 -14v98q0 217 -248 217q-119 0 -180 -47.5t-78 -155.5h-115q14 141 108.5 215t262.5 74q184 0 274 -81.5t90 -250.5v-534h152v-82h-266v143q-131 -168 -338 -168q-150 0 -236 76.5t-86 204.5zM211 262q0 -89 63 -145t170 -56 q144 0 228 96t84 259v51q-91 8 -172 8q-373 0 -373 -213z" />
<glyph unicode="b" horiz-adv-x="1112" d="M53 0v82h146v1159h-146v82h254v-545q64 88 142.5 129t179.5 41q178 0 291.5 -131t113.5 -352q0 -218 -115 -348.5t-301 -130.5q-95 0 -170 37.5t-141 119.5v-143h-254zM307 471q0 -186 83 -292.5t220 -106.5q140 0 225 106.5t85 294.5q0 181 -83.5 285t-224.5 104 q-138 0 -221.5 -105t-83.5 -286z" />
<glyph unicode="c" horiz-adv-x="987" d="M76 471q0 221 120.5 349t327.5 128q155 0 285 -112v88h84v-340h-84q-10 133 -86 205.5t-203 72.5q-155 0 -245.5 -104.5t-90.5 -286.5q0 -192 90 -301t244 -109q114 0 190 65.5t93 178.5h94q-8 -154 -110 -242t-275 -88q-197 0 -315.5 132.5t-118.5 363.5z" />
<glyph unicode="d" horiz-adv-x="1112" d="M76 461q0 224 115.5 355.5t300.5 131.5q182 0 313 -168v461h-143v82h251v-1241h146v-82h-254v147q-129 -172 -318 -172q-181 0 -296 133.5t-115 352.5zM190 467q0 -189 85 -297.5t225 -108.5q137 0 221 109t84 297q0 183 -83 289t-222 106q-137 0 -223.5 -106.5 t-86.5 -288.5z" />
<glyph unicode="e" horiz-adv-x="1011" d="M76 469q0 220 118.5 349.5t315.5 129.5q195 0 307.5 -129.5t112.5 -359.5v-17h-740q6 -184 91 -282.5t235 -98.5q123 0 202 58t99 164h90q-17 -143 -119.5 -225.5t-265.5 -82.5q-211 0 -328.5 129t-117.5 365zM190 524h625q-12 167 -92 252.5t-221 85.5 q-133 0 -212.5 -85.5t-99.5 -252.5z" />
<glyph unicode="f" horiz-adv-x="583" d="M74 0v82h157v760h-157v82h157v43q0 199 69.5 289t229.5 90q17 0 101 -15v-86q-68 10 -103 10q-99 0 -143.5 -58t-44.5 -183v-90h223v-82h-223v-760h186v-82h-452z" />
<glyph unicode="g" horiz-adv-x="1112" d="M76 465q0 221 114.5 352t298.5 131q188 0 316 -168v144h254v-82h-146v-787q0 -206 -102.5 -308.5t-312.5 -102.5q-341 0 -371 276h115q12 -89 80 -139.5t178 -50.5q147 0 226 74.5t79 211.5v160q-111 -190 -316 -190q-182 0 -297.5 131t-115.5 348zM190 473 q0 -187 84.5 -294t229.5 -107q139 0 220 107t81 292q0 181 -83.5 286t-221.5 105q-141 0 -225.5 -104t-84.5 -285z" />
<glyph unicode="h" horiz-adv-x="1138" d="M53 0v82h158v1159h-158v82h266v-537q66 84 143 123t177 39q157 0 229 -77t72 -242v-547h156v-82h-439v82h174v547q0 121 -51.5 177t-161.5 56q-130 0 -214.5 -84.5t-84.5 -218.5v-477h173v-82h-439z" />
<glyph unicode="i" horiz-adv-x="550" d="M76 0v82h155v760h-155v82h264v-842h160v-82h-424zM221 1149v133h119v-133h-119z" />
<glyph unicode="j" horiz-adv-x="446" d="M-47 -262q41 -8 92 -8q82 0 111.5 36t29.5 128v948h-174v82h283v-1030q0 -136 -45 -193t-168 -57q-51 0 -129 10v84zM174 1149v133h121v-133h-121z" />
<glyph unicode="k" d="M53 0v82h158v1159h-158v82h266v-874l461 393h-147v82h352v-82h-80l-309 -260l309 -500h90v-82h-331v82h118l-266 430l-197 -168v-262h173v-82h-439z" />
<glyph unicode="l" horiz-adv-x="538" d="M59 0v82h158v1159h-158v82h267v-1241h157v-82h-424z" />
<glyph unicode="m" horiz-adv-x="1695" d="M66 0v82h157v760h-157v82h266v-138q117 162 297 162q113 0 176.5 -40.5t97.5 -135.5q60 89 136.5 132.5t181.5 43.5q149 0 212.5 -76t63.5 -243v-547h158v-82h-438v82h172v547q0 123 -43.5 178t-147.5 55q-130 0 -207.5 -80t-77.5 -223v-477h158v-82h-438v82h172v547 q0 123 -43.5 178t-147.5 55q-129 0 -205.5 -80t-76.5 -223v-477h172v-82h-438z" />
<glyph unicode="n" horiz-adv-x="1150" d="M66 0v82h157v760h-157v82h266v-138q66 85 142.5 123.5t176.5 38.5q157 0 229 -77t72 -242v-547h156v-82h-438v82h174v547q0 121 -51.5 177t-161.5 56q-130 0 -214.5 -84.5t-84.5 -218.5v-477h172v-82h-438z" />
<glyph unicode="o" horiz-adv-x="1019" d="M76 463q0 227 116.5 356t317.5 129t316.5 -128.5t115.5 -356.5t-116 -358t-316 -130t-317 130t-117 358zM190 465q0 -188 87 -296t233 -108t231.5 108t85.5 296q0 187 -85.5 292t-231.5 105q-147 0 -233.5 -105t-86.5 -292z" />
<glyph unicode="p" horiz-adv-x="1112" d="M53 -250h146v1092h-146v82h254v-146q64 88 142.5 129t179.5 41q178 0 291.5 -131t113.5 -352q0 -217 -115 -348t-296 -131q-188 0 -316 168v-404h160v-82h-414v82zM307 471q0 -186 83 -292.5t220 -106.5q140 0 225 106.5t85 294.5q0 181 -83.5 285t-224.5 104 q-138 0 -221.5 -105t-83.5 -286z" />
<glyph unicode="q" horiz-adv-x="1112" d="M76 465q0 220 114.5 351.5t292.5 131.5q101 0 179.5 -41t142.5 -129v146h254v-82h-146v-1092h146v-82h-414v82h160v404q-128 -168 -318 -168q-181 0 -296 131t-115 348zM190 473q0 -188 85 -294.5t225 -106.5q137 0 221 106.5t84 292.5q0 181 -83.5 286t-221.5 105 q-141 0 -225.5 -104t-84.5 -285z" />
<glyph unicode="r" horiz-adv-x="673" d="M66 0v82h157v760h-157v82h266v-146q52 90 124.5 130t180.5 40h16v-86h-6q-155 0 -235 -88.5t-80 -253.5v-438h196v-82h-462z" />
<glyph unicode="s" horiz-adv-x="894" d="M80 0v319h80q17 -123 96 -190.5t199 -67.5q114 0 180.5 50t66.5 137q0 69 -46 108t-142 54l-154 26q-141 23 -205.5 79.5t-64.5 158.5q0 118 91 195t237 77q174 0 295 -115v93h82v-299h-82q-9 114 -87 174.5t-210 60.5q-98 0 -154.5 -46t-56.5 -124q0 -74 44.5 -104.5 t158.5 -50.5l145 -25q264 -44 264 -244q0 -127 -98 -209t-256 -82q-94 0 -166.5 30t-136.5 97v-102h-80z" />
<glyph unicode="t" horiz-adv-x="675" d="M43 842v82h154v211l108 39v-250h297v-82h-297v-664q0 -117 111 -117q72 0 106.5 49t34.5 154h82v-20q0 -269 -231 -269q-211 0 -211 230v637h-154z" />
<glyph unicode="u" horiz-adv-x="1136" d="M41 842v82h264v-629q0 -121 51.5 -177.5t161.5 -56.5q130 0 215.5 85t85.5 219v477h-174v82h283v-842h155v-82h-264v139q-66 -85 -142.5 -124.5t-176.5 -39.5q-158 0 -230.5 77.5t-72.5 242.5v547h-156z" />
<glyph unicode="v" horiz-adv-x="983" d="M14 842v82h346v-82h-137l271 -738l274 738h-131v82h332v-82h-86l-322 -842h-139l-316 842h-92z" />
<glyph unicode="w" horiz-adv-x="1572" d="M25 842v82h354v-82h-152l230 -725l270 807h129l256 -807l231 725h-145v82h350v-82h-96l-281 -842h-135l-248 791l-270 -791h-127l-280 842h-86z" />
<glyph unicode="x" horiz-adv-x="976" d="M0 0v82h86l330 391l-307 369h-84v82h354v-82h-133l237 -295l248 295h-121v82h342v-82h-92l-309 -361l330 -399h84v-82h-355v82h135l-262 313l-260 -313h123v-82h-346z" />
<glyph unicode="y" horiz-adv-x="985" d="M14 842v82h351v-82h-156l291 -711l286 711h-149v82h336v-82h-74l-399 -961q-24 -57 -38 -87t-36.5 -65t-44.5 -51t-55 -27t-76 -11q-50 0 -129 12v86q25 0 60 -6t46 -6q65 0 100 39.5t74 134.5l45 108l-350 834h-82z" />
<glyph unicode="z" horiz-adv-x="892" d="M102 0v121l570 721h-457v-189h-94v271h665v-113l-569 -729h479v203h95v-285h-689z" />
<glyph unicode="{" d="M176 485v90q18 -2 49 -2q140 0 197 65.5t57 221.5v240q0 88 8 147t28.5 106t57.5 72.5t93.5 38.5t138.5 13h43v-88h-37q-74 0 -118 -12.5t-69.5 -46t-33.5 -80t-8 -126.5v-241q0 -162 -39 -240.5t-156 -112.5q118 -35 156.5 -112t38.5 -240v-241q0 -79 8 -125.5t33 -79.5 t69 -45.5t117 -12.5h39v-88h-43q-103 0 -166 18.5t-99 65.5t-48.5 113.5t-12.5 177.5v240q0 157 -57 221.5t-201 64.5q-7 0 -22 -1t-23 -1z" />
<glyph unicode="|" d="M467 -483v2048h90v-2048h-90z" />
<glyph unicode="}" d="M176 -326h39q73 0 117 12.5t69 45.5t33 79.5t8 125.5v241q0 162 39 239.5t158 112.5q-119 34 -158 112t-39 241v241q0 80 -8 126.5t-33.5 80t-69.5 46t-118 12.5h-37v88h43q82 0 138.5 -13t93.5 -38.5t57.5 -72.5t28.5 -106t8 -147v-240q0 -157 57.5 -222t200.5 -65 q7 0 22 1t23 1v-90q-8 0 -23 1t-22 1q-144 0 -201 -64.5t-57 -221.5v-240q0 -111 -12.5 -177.5t-48.5 -113.5t-99 -65.5t-166 -18.5h-43v88z" />
<glyph unicode="~" horiz-adv-x="1705" d="M178 481v92q211 148 387 148q37 0 76 -6t73.5 -16t71.5 -22.5t70 -26t69.5 -26t70.5 -22.5t72.5 -16t74.5 -6q87 0 180 39.5t207 119.5v-92q-210 -147 -387 -147q-58 0 -120.5 14.5t-117.5 35t-109 41.5t-114.5 35.5t-116.5 14.5q-87 0 -180 -40t-207 -120z" />
<glyph unicode="&#xa1;" horiz-adv-x="544" d="M199 0l30 1024h84l31 -1024h-145zM203 1180v143h137v-143h-137z" />
<glyph unicode="&#xa2;" horiz-adv-x="1032" d="M96 496q0 204 105 330t291 145v157h67v-155q165 -12 270 -129v104h84v-340h-84q-10 130 -80.5 202t-189.5 75v-795q225 21 260 240h96q-13 -153 -101.5 -234.5t-254.5 -95.5v-188h-67v188q-396 62 -396 496zM211 496q0 -177 72 -280.5t209 -125.5v795q-131 -15 -206 -118 t-75 -271z" />
<glyph unicode="&#xa3;" horiz-adv-x="1032" d="M82 0v100h164v598h-164v88h164v132q0 222 89 328t281 106q152 0 241 -83t95 -231h-108q-1 106 -61.5 165t-166.5 59q-137 0 -196.5 -84.5t-59.5 -266.5v-125h246v-88h-246v-598h482v187h94v-287h-854z" />
<glyph unicode="&#xa4;" horiz-adv-x="1032" d="M-14 506l16 63h133q-2 31 -2 95q0 34 4 96h-151l16 61h141q31 248 153 388.5t302 140.5q198 0 289 -146v117h94v-367h-94q-8 132 -85.5 219t-199.5 87q-139 0 -226.5 -119t-113.5 -320h574l-17 -61h-563q-4 -62 -4 -96q0 -64 2 -95h514l-16 -63h-492q24 -210 113 -327.5 t235 -117.5q112 0 181.5 87.5t78.5 218.5h113q-22 -200 -117.5 -298t-273.5 -98q-188 0 -304.5 141.5t-144.5 393.5h-155z" />
<glyph unicode="&#xa5;" horiz-adv-x="1007" d="M-74 1237v86h371v-86h-166l377 -592l383 592h-166v86h373v-86h-88l-224 -338h199v-61h-240l-127 -191h367v-63h-403l-23 -31v-463h215v-90h-543v90h215v463l-20 31h-403v63h368l-123 191h-245v61h206l-215 338h-88z" />
<glyph unicode="&#xa6;" d="M467 -350v758h90v-758h-90zM467 674v758h90v-758h-90z" />
<glyph unicode="&#xa7;" d="M133 604q0 158 195 238q-172 75 -172 237q0 121 93 197t253 76q174 0 269 -79t95 -222v-27h-112q0 242 -242 242q-118 0 -183 -49t-65 -134q0 -64 51.5 -110t165.5 -88l181 -66q229 -85 229 -250q0 -83 -49.5 -144.5t-141.5 -92.5q174 -79 174 -250q0 -132 -99 -213.5 t-267 -81.5q-175 0 -268.5 85.5t-102.5 254.5h117q13 -126 75.5 -186t178.5 -60q118 0 184 54t66 147q0 66 -48 113.5t-147 83.5l-172 61q-132 48 -195 111t-63 153zM248 627q0 -63 56.5 -112t172.5 -89l158 -55q143 68 143 170q0 65 -52 111t-165 87l-164 60 q-73 -26 -111 -71t-38 -101z" />
<glyph unicode="&#xa8;" d="M268 1141v133h129v-133h-129zM627 1141v133h129v-133h-129z" />
<glyph unicode="&#xa9;" horiz-adv-x="1705" d="M123 721q0 145 56 279t161 241q208 211 512 211q149 0 282.5 -55.5t237.5 -159.5q103 -103 157 -235.5t54 -280.5q0 -304 -211 -512q-107 -106 -241 -162.5t-279 -56.5t-277 56t-237 161q-104 104 -159.5 236t-55.5 278zM195 721q0 -130 50 -249.5t144 -213.5 t213.5 -144.5t249.5 -50.5q129 0 250.5 51t218.5 146q190 187 190 461q0 134 -49 253.5t-141 211.5q-194 194 -469 194q-133 0 -251.5 -49t-209.5 -141q-95 -97 -145.5 -217.5t-50.5 -251.5zM471 725q0 207 107.5 329t281.5 122q132 0 223 -72t103 -186h-105 q-20 82 -79.5 127t-147.5 45q-125 0 -195.5 -97t-70.5 -274q0 -171 72 -268t194 -97q91 0 156 52t84 141h102q-10 -123 -107.5 -201t-240.5 -78q-171 0 -274 122t-103 335z" />
<glyph unicode="&#xaa;" horiz-adv-x="796" d="M72 854q0 105 86 160t254 55q38 0 155 -10v67q0 75 -47 114.5t-139 39.5q-90 0 -135.5 -33.5t-57.5 -109.5h-86q9 99 80 150.5t197 51.5q139 0 206.5 -56.5t67.5 -174.5v-375h113v-57h-199v100q-99 -117 -254 -117q-112 0 -176.5 52.5t-64.5 142.5zM158 860 q0 -62 47.5 -101.5t128.5 -39.5q107 0 170 67t63 181v37q-51 4 -129 4q-280 0 -280 -148z" />
<glyph unicode="&#xab;" horiz-adv-x="786" d="M111 467l161 403h99l-164 -403l164 -401h-99zM416 467l164 403h98l-164 -403l164 -401h-98z" />
<glyph unicode="&#xac;" horiz-adv-x="1705" d="M254 776v80h1198v-502h-80v422h-1118z" />
<glyph unicode="&#xad;" horiz-adv-x="669" d="M98 420v98h473v-98h-473z" />
<glyph unicode="&#xae;" horiz-adv-x="1705" d="M123 721q0 145 56 279t161 241q208 211 512 211q149 0 282.5 -55.5t237.5 -159.5q103 -103 157 -235.5t54 -280.5q0 -304 -211 -512q-107 -106 -241 -162.5t-279 -56.5t-277 56t-237 161q-104 104 -159.5 236t-55.5 278zM195 721q0 -130 50 -249.5t144 -213.5 t213.5 -144.5t249.5 -50.5q129 0 250.5 51t218.5 146q190 187 190 461q0 134 -49 253.5t-141 211.5q-194 194 -469 194q-133 0 -251.5 -49t-209.5 -141q-95 -97 -145.5 -217.5t-50.5 -251.5zM569 309v846h305q177 0 263 -56t86 -177q0 -89 -55 -149.5t-148 -70.5l190 -393 h-131l-182 377h-213v-377h-115zM684 764h168q139 0 196.5 34t57.5 128q0 79 -62.5 115t-191.5 36h-168v-313z" />
<glyph unicode="&#xaf;" d="M266 1165v101h492v-101h-492z" />
<glyph unicode="&#xb0;" horiz-adv-x="673" d="M63 1176q0 115 80.5 194.5t194.5 79.5q113 0 192.5 -80t79.5 -194q0 -113 -79.5 -193t-194.5 -80t-194 79.5t-79 193.5zM125 1176q0 -89 62.5 -151t150.5 -62q89 0 151 62.5t62 150.5t-62.5 150.5t-150.5 62.5q-89 0 -151 -62t-62 -151z" />
<glyph unicode="&#xb1;" horiz-adv-x="1705" d="M254 61v80h1198v-80h-1198zM254 727v80h559v354h80v-354h559v-80h-559v-352h-80v352h-559z" />
<glyph unicode="&#xb2;" horiz-adv-x="681" d="M49 528v95l215 184q134 115 192 186t58 137q0 69 -48.5 111.5t-129.5 42.5q-83 0 -135 -49.5t-56 -134.5h-75q0 110 73.5 174.5t198.5 64.5q114 0 183 -56.5t69 -147.5q0 -34 -9.5 -65.5t-34 -67.5t-48 -64.5t-72 -73t-83.5 -76t-104 -89.5q-23 -19 -34 -29l-96 -82h432 v121h59v-181h-555z" />
<glyph unicode="&#xb3;" horiz-adv-x="681" d="M66 750h75q6 -87 56 -135t131 -48q94 0 146 48.5t52 132.5q0 76 -57.5 116.5t-169.5 40.5v58h18q97 0 151 43t54 120q0 72 -48.5 116t-131.5 44q-82 0 -132.5 -44.5t-59.5 -127.5h-74q8 104 78.5 164.5t185.5 60.5q118 0 187 -57.5t69 -155.5q0 -75 -47 -125t-135 -69 q90 -13 139 -64.5t49 -130.5q0 -100 -71 -162.5t-189 -62.5q-132 0 -201.5 60.5t-74.5 177.5z" />
<glyph unicode="&#xb4;" d="M391 1059l215 348h133l-268 -348h-80z" />
<glyph unicode="&#xb5;" horiz-adv-x="1093" d="M-111 -424l316 1487h121l-123 -590q-17 -87 -17 -141q0 -126 60 -192t174 -66q125 0 218 107.5t138 314.5l125 567h121l-166 -787q-25 -121 -25 -135q0 -63 68 -63q16 0 39 2l-18 -96q-63 -13 -76 -13q-133 0 -133 127q0 13 4 45q-43 -83 -124 -127.5t-188 -44.5 q-98 0 -170 45t-104 127l-119 -567h-121z" />
<glyph unicode="&#xb6;" d="M90 1130q0 155 107.5 252t287.5 97h447v-64h-129v-1415h-70v1415h-192v-1415h-70v782q-177 7 -279 102t-102 246z" />
<glyph unicode="&#xb7;" horiz-adv-x="516" d="M178 666q0 34 22.5 58t57.5 24q32 0 56 -24t24 -56q0 -34 -23.5 -57t-58.5 -23q-31 0 -54.5 23t-23.5 55z" />
<glyph unicode="&#xb8;" d="M287 -348q158 -33 229 -33q68 0 103.5 26t35.5 74q0 105 -153 105q-35 0 -53 -2v178h59v-113h22q102 0 154.5 -41.5t52.5 -121.5q0 -85 -57.5 -131t-165.5 -46q-96 0 -227 35v70z" />
<glyph unicode="&#xb9;" horiz-adv-x="679" d="M131 1096v71q104 67 215 156h72v-741h129v-54h-344v54h139v663q-98 -85 -211 -149z" />
<glyph unicode="&#xba;" horiz-adv-x="765" d="M57 999q0 159 87.5 249.5t238.5 90.5q150 0 237 -90.5t87 -249.5t-87 -249.5t-237 -90.5q-151 0 -238.5 90.5t-87.5 249.5zM143 1001q0 -131 65 -206.5t175 -75.5q108 0 173 75.5t65 206.5t-64.5 205t-173.5 74q-110 0 -175 -74t-65 -205z" />
<glyph unicode="&#xbb;" horiz-adv-x="786" d="M111 66l161 401l-161 403h96l164 -403l-164 -401h-96zM416 66l164 401l-164 403h98l164 -403l-164 -401h-98z" />
<glyph unicode="&#xbc;" horiz-adv-x="1642" d="M127 1110v68q101 63 205 145h67v-690h123v-51h-327v51h133v616q-95 -79 -201 -139zM307 -29l928 1381l96 -4l-930 -1377h-94zM1026 213v78l379 450h86v-479h115v-49h-115v-162h113v-51h-318v51h133v162h-393zM1081 262h338v410l-338 -404v-6z" />
<glyph unicode="&#xbd;" horiz-adv-x="1642" d="M127 1110v68q101 63 205 145h67v-690h123v-51h-327v51h133v616q-95 -79 -201 -139zM307 -29l928 1381l96 -4l-930 -1377h-94zM1038 0v88l205 172q128 107 184 173t56 128q0 65 -47 104.5t-123 39.5q-79 0 -129 -46t-54 -127h-73q2 104 72 165t188 61q108 0 175 -53 t67 -138q0 -38 -15 -75.5t-41.5 -72.5t-70.5 -77.5t-92 -84t-116 -98.5q-22 -18 -34 -28l-92 -76h413v113h58v-168h-531z" />
<glyph unicode="&#xbe;" horiz-adv-x="1642" d="M61 788h74q4 -81 52 -125.5t126 -44.5q90 0 140.5 45t50.5 123q0 71 -56 109t-163 39v53h18q93 0 145 40.5t52 111.5q0 68 -46.5 108.5t-127.5 40.5q-77 0 -126.5 -42t-58.5 -118h-69q8 97 76 154t178 57q112 0 177.5 -54t65.5 -146q0 -69 -45 -116.5t-129 -64.5 q86 -13 133 -60.5t47 -121.5q0 -94 -68.5 -152.5t-180.5 -58.5q-126 0 -193 57t-72 166zM309 -29l928 1381l96 -4l-930 -1377h-94zM1028 213v78l379 450h86v-479h115v-49h-115v-162h113v-51h-318v51h133v162h-393zM1083 262h338v410l-338 -404v-6z" />
<glyph unicode="&#xbf;" horiz-adv-x="899" d="M63 317q0 90 37 158t117 141l129 119q52 49 72 107t20 147v35h119v-20q0 -117 -23 -191t-83 -127l-162 -143q-50 -43 -77.5 -103.5t-27.5 -126.5q0 -114 73 -183t194 -69q119 0 185 69t73 202h114q-6 -179 -102 -270t-277 -91q-173 0 -277 96.5t-104 249.5zM428 1176v143 h137v-143h-137z" />
<glyph unicode="&#xc0;" horiz-adv-x="1435" d="M14 0v86h115l522 1237h140l514 -1237h116v-86h-442v86h192l-153 383h-608l-160 -383h192v-86h-428zM444 555h539l-268 664zM494 1810h133l215 -348h-80z" />
<glyph unicode="&#xc1;" horiz-adv-x="1435" d="M14 0v86h115l522 1237h140l514 -1237h116v-86h-442v86h192l-153 383h-608l-160 -383h192v-86h-428zM444 555h539l-268 664zM600 1462l215 348h133l-268 -348h-80z" />
<glyph unicode="&#xc2;" horiz-adv-x="1435" d="M14 0v86h115l522 1237h140l514 -1237h116v-86h-442v86h192l-153 383h-608l-160 -383h192v-86h-428zM444 555h539l-268 664zM446 1462l209 348h131l207 -348h-80l-192 277l-193 -277h-82z" />
<glyph unicode="&#xc3;" horiz-adv-x="1435" d="M14 0v86h115l522 1237h140l514 -1237h116v-86h-442v86h192l-153 383h-608l-160 -383h192v-86h-428zM436 1528q47 170 182 170q41 0 70 -10l86 -29q24 -8 55 -8q63 0 103 69h72q-52 -172 -181 -172q-28 0 -75 13l-89 26q-24 8 -55 8q-59 0 -96 -67h-72zM444 555h539 l-268 664z" />
<glyph unicode="&#xc4;" horiz-adv-x="1435" d="M14 0v86h115l522 1237h140l514 -1237h116v-86h-442v86h192l-153 383h-608l-160 -383h192v-86h-428zM444 555h539l-268 664zM477 1544v133h129v-133h-129zM836 1544v133h129v-133h-129z" />
<glyph unicode="&#xc5;" horiz-adv-x="1435" d="M14 0v90h115l522 1233h140l514 -1233h116v-90h-442v90h192l-153 379h-608l-160 -379h192v-90h-428zM444 557h539l-268 662zM487 1622q0 98 68 165.5t166 67.5t165.5 -67.5t67.5 -165.5t-67.5 -165.5t-165.5 -67.5t-166 67.5t-68 165.5zM567 1622q0 -63 45 -107.5 t109 -44.5q65 0 109 44t44 108q0 65 -44.5 109.5t-108.5 44.5t-109 -45.5t-45 -108.5z" />
<glyph unicode="&#xc6;" horiz-adv-x="2043" d="M-121 0v90h117l930 1147h-185v86h1164v-389h-99v303h-651v-516h336v213h98v-514h-98v213h-336v-543h651v330h99v-420h-1061v90h192v379h-614l-307 -379h192v-90h-428zM494 557h542v680z" />
<glyph unicode="&#xc7;" horiz-adv-x="1349" d="M92 664q0 321 166.5 504.5t448.5 183.5q268 0 438 -185v156h100v-459h-100q-4 184 -120.5 291t-311.5 107q-233 0 -365.5 -157t-132.5 -441q0 -285 136 -444t374 -159q168 0 269 98.5t126 286.5h123q-49 -475 -543 -475q-282 0 -445 184.5t-163 508.5zM473 -348 q158 -33 229 -33q68 0 104 26t36 74q0 105 -154 105q-35 0 -53 -2v178h59v-113h23q102 0 154.5 -41.5t52.5 -121.5q0 -85 -58 -131t-166 -46q-96 0 -227 35v70z" />
<glyph unicode="&#xc8;" horiz-adv-x="1261" d="M72 0v86h182v1151h-182v86h1048v-389h-98v303h-649v-518h336v215h98v-514h-98v213h-336v-547h649v334h98v-420h-1048zM403 1810h134l215 -348h-80z" />
<glyph unicode="&#xc9;" horiz-adv-x="1261" d="M72 0v86h182v1151h-182v86h1048v-389h-98v303h-649v-518h336v215h98v-514h-98v213h-336v-547h649v334h98v-420h-1048zM510 1462l215 348h133l-268 -348h-80z" />
<glyph unicode="&#xca;" horiz-adv-x="1261" d="M72 0v86h182v1151h-182v86h1048v-389h-98v303h-649v-518h336v215h98v-514h-98v213h-336v-547h649v334h98v-420h-1048zM356 1462l209 348h131l207 -348h-80l-192 277l-193 -277h-82z" />
<glyph unicode="&#xcb;" horiz-adv-x="1261" d="M72 0v86h182v1151h-182v86h1048v-389h-98v303h-649v-518h336v215h98v-514h-98v213h-336v-547h649v334h98v-420h-1048zM387 1544v133h129v-133h-129zM745 1544v133h129v-133h-129z" />
<glyph unicode="&#xcc;" horiz-adv-x="653" d="M84 0v86h182v1151h-182v86h485v-86h-184v-1151h184v-86h-485zM100 1810h133l216 -348h-80z" />
<glyph unicode="&#xcd;" horiz-adv-x="653" d="M84 0v86h182v1151h-182v86h485v-86h-184v-1151h184v-86h-485zM207 1462l215 348h133l-268 -348h-80z" />
<glyph unicode="&#xce;" horiz-adv-x="653" d="M53 1462l209 348h131l207 -348h-80l-192 277l-193 -277h-82zM84 0v86h182v1151h-182v86h485v-86h-184v-1151h184v-86h-485z" />
<glyph unicode="&#xcf;" horiz-adv-x="653" d="M84 0v86h182v1151h-182v86h485v-86h-184v-1151h184v-86h-485zM84 1544v133h129v-133h-129zM442 1544v133h129v-133h-129z" />
<glyph unicode="&#xd0;" horiz-adv-x="1372" d="M0 635v76h258v526h-182v86h514q336 0 513 -170.5t177 -490.5t-177 -491t-513 -171h-514v90h182v545h-258zM377 90h213q273 0 419 148.5t146 425.5t-145.5 425t-419.5 148h-213v-526h362v-76h-362v-545z" />
<glyph unicode="&#xd1;" horiz-adv-x="1492" d="M74 0v86h172v1151h-172v86h352l719 -1190v1104h-193v86h488v-86h-176v-1237h-162l-737 1221v-1135h196v-86h-487zM463 1528q47 170 182 170q41 0 70 -10l86 -29q24 -8 55 -8q62 0 102 69h72q-52 -172 -180 -172q-29 0 -76 13l-88 26q-24 8 -55 8q-59 0 -96 -67h-72z" />
<glyph unicode="&#xd2;" horiz-adv-x="1458" d="M92 662q0 329 167.5 509.5t469.5 180.5t469.5 -180.5t167.5 -509.5q0 -328 -168 -509.5t-469 -181.5q-300 0 -468.5 181t-168.5 510zM215 664q0 -289 134.5 -446t379.5 -157t379.5 157.5t134.5 445.5t-134.5 443t-379.5 155t-379.5 -155t-134.5 -443zM502 1810h133 l215 -348h-80z" />
<glyph unicode="&#xd3;" horiz-adv-x="1458" d="M92 662q0 329 167.5 509.5t469.5 180.5t469.5 -180.5t167.5 -509.5q0 -328 -168 -509.5t-469 -181.5q-300 0 -468.5 181t-168.5 510zM215 664q0 -289 134.5 -446t379.5 -157t379.5 157.5t134.5 445.5t-134.5 443t-379.5 155t-379.5 -155t-134.5 -443zM608 1462l215 348 h133l-268 -348h-80z" />
<glyph unicode="&#xd4;" horiz-adv-x="1458" d="M92 662q0 329 167.5 509.5t469.5 180.5t469.5 -180.5t167.5 -509.5q0 -328 -168 -509.5t-469 -181.5q-300 0 -468.5 181t-168.5 510zM215 664q0 -289 134.5 -446t379.5 -157t379.5 157.5t134.5 445.5t-134.5 443t-379.5 155t-379.5 -155t-134.5 -443zM455 1462l209 348 h131l206 -348h-79l-193 277l-192 -277h-82z" />
<glyph unicode="&#xd5;" horiz-adv-x="1458" d="M92 662q0 329 167.5 509.5t469.5 180.5t469.5 -180.5t167.5 -509.5q0 -328 -168 -509.5t-469 -181.5q-300 0 -468.5 181t-168.5 510zM215 664q0 -289 134.5 -446t379.5 -157t379.5 157.5t134.5 445.5t-134.5 443t-379.5 155t-379.5 -155t-134.5 -443zM444 1528 q47 170 183 170q40 0 69 -10l86 -29q24 -8 56 -8q62 0 102 69h72q-52 -172 -181 -172q-28 0 -75 13l-88 26q-24 8 -56 8q-59 0 -96 -67h-72z" />
<glyph unicode="&#xd6;" horiz-adv-x="1458" d="M92 662q0 329 167.5 509.5t469.5 180.5t469.5 -180.5t167.5 -509.5q0 -328 -168 -509.5t-469 -181.5q-300 0 -468.5 181t-168.5 510zM215 664q0 -289 134.5 -446t379.5 -157t379.5 157.5t134.5 445.5t-134.5 443t-379.5 155t-379.5 -155t-134.5 -443zM485 1544v133h129 v-133h-129zM844 1544v133h129v-133h-129z" />
<glyph unicode="&#xd7;" horiz-adv-x="1705" d="M309 123l488 487l-488 488l58 57l487 -487l487 487l58 -57l-488 -488l488 -487l-58 -57l-487 487l-487 -487z" />
<glyph unicode="&#xd8;" horiz-adv-x="1458" d="M92 662q0 329 167.5 509.5t469.5 180.5q259 0 432 -150l152 170l45 -45l-148 -170q156 -186 156 -495q0 -328 -167.5 -508.5t-467.5 -180.5q-273 0 -430 142l-145 -166l-50 43l146 170q-160 186 -160 500zM215 664q0 -272 115 -416l762 874q-146 140 -363 140 q-245 0 -379.5 -155t-134.5 -443zM371 199q134 -131 360 -131q244 0 377 154t133 442q0 269 -106 407z" />
<glyph unicode="&#xd9;" horiz-adv-x="1411" d="M63 1237v86h467v-86h-200v-801q0 -172 101 -273.5t274 -101.5t273.5 101.5t100.5 273.5v801h-198v86h467v-86h-150v-780q0 -227 -132 -356.5t-361 -129.5t-361.5 129.5t-132.5 356.5v780h-148zM479 1810h133l215 -348h-79z" />
<glyph unicode="&#xda;" horiz-adv-x="1411" d="M63 1237v86h467v-86h-200v-801q0 -172 101 -273.5t274 -101.5t273.5 101.5t100.5 273.5v801h-198v86h467v-86h-150v-780q0 -227 -132 -356.5t-361 -129.5t-361.5 129.5t-132.5 356.5v780h-148zM586 1462l215 348h133l-268 -348h-80z" />
<glyph unicode="&#xdb;" horiz-adv-x="1411" d="M63 1237v86h467v-86h-200v-801q0 -172 101 -273.5t274 -101.5t273.5 101.5t100.5 273.5v801h-198v86h467v-86h-150v-780q0 -227 -132 -356.5t-361 -129.5t-361.5 129.5t-132.5 356.5v780h-148zM432 1462l209 348h131l207 -348h-80l-192 277l-193 -277h-82z" />
<glyph unicode="&#xdc;" horiz-adv-x="1411" d="M63 1237v86h467v-86h-200v-801q0 -172 101 -273.5t274 -101.5t273.5 101.5t100.5 273.5v801h-198v86h467v-86h-150v-780q0 -227 -132 -356.5t-361 -129.5t-361.5 129.5t-132.5 356.5v780h-148zM463 1544v133h129v-133h-129zM821 1544v133h129v-133h-129z" />
<glyph unicode="&#xdd;" horiz-adv-x="1208" d="M14 1237v86h389v-86h-165l364 -575l371 575h-166v86h387v-86h-88l-453 -684v-467h217v-86h-551v86h216v467l-433 684h-88zM483 1462l215 348h133l-268 -348h-80z" />
<glyph unicode="&#xde;" horiz-adv-x="1185" d="M72 0v90h182v1147h-182v86h483v-86h-182v-174h223q259 0 378.5 -89.5t119.5 -297.5q0 -96 -39 -175t-111 -130q-57 -40 -137.5 -53t-210.5 -13h-223v-215h241v-90h-542zM373 393h223q197 0 291 66.5t94 216.5q0 161 -93 232t-292 71h-223v-586z" />
<glyph unicode="&#xdf;" horiz-adv-x="1067" d="M47 0v86h156v854q0 196 98.5 302t276.5 106q154 0 251 -89t97 -225q0 -118 -68 -199.5t-190 -109.5q156 -37 231.5 -122t75.5 -224q0 -180 -103 -279.5t-294 -99.5h-33v86q321 0 321 305q0 129 -83.5 202t-241.5 79v100q128 1 202 69t74 179q0 115 -64 178.5t-178 63.5 q-121 0 -191.5 -83.5t-70.5 -234.5v-858h140v-86h-406z" />
<glyph unicode="&#xe0;" horiz-adv-x="1062" d="M96 256q0 150 114 227.5t339 77.5q46 0 207 -14v98q0 217 -248 217q-119 0 -180 -47.5t-78 -155.5h-115q14 141 108.5 215t262.5 74q184 0 274 -81.5t90 -250.5v-534h152v-82h-266v143q-131 -168 -338 -168q-150 0 -236 76.5t-86 204.5zM211 262q0 -89 63 -145t170 -56 q144 0 228 96t84 259v51q-91 8 -172 8q-373 0 -373 -213zM293 1407h133l215 -348h-80z" />
<glyph unicode="&#xe1;" horiz-adv-x="1062" d="M96 256q0 150 114 227.5t339 77.5q46 0 207 -14v98q0 217 -248 217q-119 0 -180 -47.5t-78 -155.5h-115q14 141 108.5 215t262.5 74q184 0 274 -81.5t90 -250.5v-534h152v-82h-266v143q-131 -168 -338 -168q-150 0 -236 76.5t-86 204.5zM211 262q0 -89 63 -145t170 -56 q144 0 228 96t84 259v51q-91 8 -172 8q-373 0 -373 -213zM399 1059l215 348h134l-269 -348h-80z" />
<glyph unicode="&#xe2;" horiz-adv-x="1062" d="M96 256q0 150 114 227.5t339 77.5q46 0 207 -14v98q0 217 -248 217q-119 0 -180 -47.5t-78 -155.5h-115q14 141 108.5 215t262.5 74q184 0 274 -81.5t90 -250.5v-534h152v-82h-266v143q-131 -168 -338 -168q-150 0 -236 76.5t-86 204.5zM211 262q0 -89 63 -145t170 -56 q144 0 228 96t84 259v51q-91 8 -172 8q-373 0 -373 -213zM246 1059l209 348h131l207 -348h-80l-193 276l-192 -276h-82z" />
<glyph unicode="&#xe3;" horiz-adv-x="1062" d="M96 256q0 150 114 227.5t339 77.5q46 0 207 -14v98q0 217 -248 217q-119 0 -180 -47.5t-78 -155.5h-115q14 141 108.5 215t262.5 74q184 0 274 -81.5t90 -250.5v-534h152v-82h-266v143q-131 -168 -338 -168q-150 0 -236 76.5t-86 204.5zM211 262q0 -89 63 -145t170 -56 q144 0 228 96t84 259v51q-91 8 -172 8q-373 0 -373 -213zM236 1124q47 170 182 170q40 0 69 -10l86 -29q24 -8 56 -8q62 0 102 70h72q-52 -172 -180 -172q-33 0 -76 12l-88 27q-24 8 -56 8q-58 0 -96 -68h-71z" />
<glyph unicode="&#xe4;" horiz-adv-x="1062" d="M96 256q0 150 114 227.5t339 77.5q46 0 207 -14v98q0 217 -248 217q-119 0 -180 -47.5t-78 -155.5h-115q14 141 108.5 215t262.5 74q184 0 274 -81.5t90 -250.5v-534h152v-82h-266v143q-131 -168 -338 -168q-150 0 -236 76.5t-86 204.5zM211 262q0 -89 63 -145t170 -56 q144 0 228 96t84 259v51q-91 8 -172 8q-373 0 -373 -213zM276 1141v133h130v-133h-130zM635 1141v133h129v-133h-129z" />
<glyph unicode="&#xe5;" horiz-adv-x="1062" d="M96 256q0 150 114 226.5t339 76.5q69 0 207 -12v98q0 217 -248 217q-119 0 -180 -47.5t-80 -155.5h-113q14 141 108.5 215t262.5 74q183 0 270.5 -81t87.5 -251v-530h158v-86h-266v143q-131 -168 -338 -168q-150 0 -236 76.5t-86 204.5zM211 262q0 -89 62.5 -142.5 t170.5 -53.5q145 0 228.5 93.5t83.5 256.5v51q-113 10 -172 10q-373 0 -373 -215zM276 1247q0 98 68 166t166 68t165.5 -68t67.5 -166t-67.5 -165.5t-165.5 -67.5t-166 67.5t-68 165.5zM356 1247q0 -63 45 -107t109 -44q65 0 109.5 43.5t44.5 107.5q0 65 -45 109.5 t-109 44.5t-109 -45.5t-45 -108.5z" />
<glyph unicode="&#xe6;" horiz-adv-x="1656" d="M61 244q0 167 114.5 232t369.5 65h176v104q0 107 -63.5 164t-182.5 57t-180.5 -48.5t-81.5 -158.5h-113q14 140 109 214.5t262 74.5q134 0 221 -53.5t115 -151.5q108 205 348 205q195 0 307.5 -129.5t112.5 -361.5h-739q3 -191 87.5 -293.5t237.5 -102.5q123 0 202 58 t99 164h90q-17 -144 -121 -227t-270 -83q-138 0 -232 61t-153 187q-111 -246 -383 -246q-153 0 -242.5 73t-89.5 196zM176 256q0 -88 62 -139t170 -51q147 0 230 88.5t83 244.5v58h-242q-143 0 -223 -55t-80 -146zM840 541h618q-15 159 -94.5 240t-218.5 81 q-130 0 -209 -82.5t-96 -238.5z" />
<glyph unicode="&#xe7;" horiz-adv-x="987" d="M76 471q0 221 120.5 349t327.5 128q155 0 285 -112v88h84v-340h-84q-10 133 -86 205.5t-203 72.5q-155 0 -245.5 -104.5t-90.5 -286.5q0 -192 90 -301t244 -109q114 0 190 65.5t93 178.5h94q-8 -154 -110 -242t-275 -88q-197 0 -315.5 132.5t-118.5 363.5zM276 -348 q158 -33 230 -33q68 0 103.5 26t35.5 74q0 105 -153 105q-36 0 -54 -2v178h60v-113h22q102 0 154.5 -41.5t52.5 -121.5q0 -85 -57.5 -131t-165.5 -46q-97 0 -228 35v70z" />
<glyph unicode="&#xe8;" horiz-adv-x="1011" d="M76 469q0 220 118.5 349.5t315.5 129.5q195 0 307.5 -129.5t112.5 -359.5v-17h-740q6 -184 91 -282.5t235 -98.5q123 0 202 58t99 164h90q-17 -143 -119.5 -225.5t-265.5 -82.5q-211 0 -328.5 129t-117.5 365zM190 524h625q-12 167 -92 252.5t-221 85.5 q-133 0 -212.5 -85.5t-99.5 -252.5zM279 1407h133l215 -348h-80z" />
<glyph unicode="&#xe9;" horiz-adv-x="1011" d="M76 469q0 220 118.5 349.5t315.5 129.5q195 0 307.5 -129.5t112.5 -359.5v-17h-740q6 -184 91 -282.5t235 -98.5q123 0 202 58t99 164h90q-17 -143 -119.5 -225.5t-265.5 -82.5q-211 0 -328.5 129t-117.5 365zM190 524h625q-12 167 -92 252.5t-221 85.5 q-133 0 -212.5 -85.5t-99.5 -252.5zM385 1059l215 348h133l-268 -348h-80z" />
<glyph unicode="&#xea;" horiz-adv-x="1011" d="M76 469q0 220 118.5 349.5t315.5 129.5q195 0 307.5 -129.5t112.5 -359.5v-17h-740q6 -184 91 -282.5t235 -98.5q123 0 202 58t99 164h90q-17 -143 -119.5 -225.5t-265.5 -82.5q-211 0 -328.5 129t-117.5 365zM190 524h625q-12 167 -92 252.5t-221 85.5 q-133 0 -212.5 -85.5t-99.5 -252.5zM231 1059l209 348h131l207 -348h-80l-192 276l-193 -276h-82z" />
<glyph unicode="&#xeb;" horiz-adv-x="1011" d="M76 469q0 220 118.5 349.5t315.5 129.5q195 0 307.5 -129.5t112.5 -359.5v-17h-740q6 -184 91 -282.5t235 -98.5q123 0 202 58t99 164h90q-17 -143 -119.5 -225.5t-265.5 -82.5q-211 0 -328.5 129t-117.5 365zM190 524h625q-12 167 -92 252.5t-221 85.5 q-133 0 -212.5 -85.5t-99.5 -252.5zM262 1141v133h129v-133h-129zM621 1141v133h129v-133h-129z" />
<glyph unicode="&#xec;" horiz-adv-x="550" d="M25 1407h133l215 -348h-80zM76 0v86h155v758h-155v80h266v-838h158v-86h-424z" />
<glyph unicode="&#xed;" horiz-adv-x="550" d="M76 0v86h155v758h-155v80h266v-838h158v-86h-424zM131 1059l215 348h133l-268 -348h-80z" />
<glyph unicode="&#xee;" horiz-adv-x="550" d="M-23 1059l209 348h131l207 -348h-80l-192 276l-193 -276h-82zM76 0v86h155v758h-155v80h266v-838h158v-86h-424z" />
<glyph unicode="&#xef;" horiz-adv-x="550" d="M8 1141v133h129v-133h-129zM76 0v86h155v758h-155v80h266v-838h158v-86h-424zM367 1141v133h129v-133h-129z" />
<glyph unicode="&#xf0;" horiz-adv-x="1019" d="M76 463q0 227 116.5 356t317.5 129q118 0 209 -49q-51 107 -191 211l-245 -125l-27 51l211 115q-89 62 -240 111l33 79q161 -41 307 -139l242 129l29 -51l-215 -117q155 -125 237 -304t82 -396q0 -227 -116 -357.5t-316 -130.5t-317 130t-117 358zM190 465 q0 -187 87 -293t233 -106t232.5 106t86.5 293t-86.5 292t-232.5 105q-147 0 -233.5 -105t-86.5 -292z" />
<glyph unicode="&#xf1;" horiz-adv-x="1150" d="M66 0v82h157v760h-157v82h266v-138q66 85 142.5 123.5t176.5 38.5q157 0 229 -77t72 -242v-547h156v-82h-438v82h174v547q0 121 -51.5 177t-161.5 56q-130 0 -214.5 -84.5t-84.5 -218.5v-477h172v-82h-438zM291 1124q47 170 182 170q41 0 70 -10l86 -29q24 -8 55 -8 q62 0 102 70h72q-52 -172 -180 -172q-32 0 -76 12l-88 27q-24 8 -55 8q-59 0 -97 -68h-71z" />
<glyph unicode="&#xf2;" horiz-adv-x="1019" d="M76 463q0 227 116.5 356t317.5 129t316.5 -128.5t115.5 -356.5t-116 -358t-316 -130t-317 130t-117 358zM190 465q0 -188 87 -296t233 -108t231.5 108t85.5 296q0 187 -85.5 292t-231.5 105q-147 0 -233.5 -105t-86.5 -292zM283 1407h133l215 -348h-80z" />
<glyph unicode="&#xf3;" horiz-adv-x="1019" d="M76 463q0 227 116.5 356t317.5 129t316.5 -128.5t115.5 -356.5t-116 -358t-316 -130t-317 130t-117 358zM190 465q0 -188 87 -296t233 -108t231.5 108t85.5 296q0 187 -85.5 292t-231.5 105q-147 0 -233.5 -105t-86.5 -292zM389 1059l215 348h133l-268 -348h-80z" />
<glyph unicode="&#xf4;" horiz-adv-x="1019" d="M76 463q0 227 116.5 356t317.5 129t316.5 -128.5t115.5 -356.5t-116 -358t-316 -130t-317 130t-117 358zM190 465q0 -188 87 -296t233 -108t231.5 108t85.5 296q0 187 -85.5 292t-231.5 105q-147 0 -233.5 -105t-86.5 -292zM236 1059l208 348h131l207 -348h-80l-192 276 l-193 -276h-81z" />
<glyph unicode="&#xf5;" horiz-adv-x="1019" d="M76 463q0 227 116.5 356t317.5 129t316.5 -128.5t115.5 -356.5t-116 -358t-316 -130t-317 130t-117 358zM190 465q0 -188 87 -296t233 -108t231.5 108t85.5 296q0 187 -85.5 292t-231.5 105q-147 0 -233.5 -105t-86.5 -292zM225 1124q47 170 183 170q40 0 69 -10l86 -29 q24 -8 55 -8q63 0 103 70h72q-52 -172 -181 -172q-32 0 -75 12l-88 27q-24 8 -56 8q-58 0 -96 -68h-72z" />
<glyph unicode="&#xf6;" horiz-adv-x="1019" d="M76 463q0 227 116.5 356t317.5 129t316.5 -128.5t115.5 -356.5t-116 -358t-316 -130t-317 130t-117 358zM190 465q0 -188 87 -296t233 -108t231.5 108t85.5 296q0 187 -85.5 292t-231.5 105q-147 0 -233.5 -105t-86.5 -292zM266 1141v133h129v-133h-129zM625 1141v133 h129v-133h-129z" />
<glyph unicode="&#xf7;" horiz-adv-x="1705" d="M254 571v80h1198v-80h-1198zM756 266q0 40 29.5 70.5t68.5 30.5q41 0 69.5 -30.5t28.5 -70.5q0 -41 -28.5 -69.5t-69.5 -28.5q-42 0 -70 28t-28 70zM756 956q0 41 29 70t69 29q41 0 69.5 -29t28.5 -70q0 -40 -28.5 -70t-69.5 -30t-69.5 29.5t-28.5 70.5z" />
<glyph unicode="&#xf8;" horiz-adv-x="1019" d="M76 -10l106 131q-106 139 -106 342q0 226 117 355.5t317 129.5q166 0 281 -92l98 117l45 -41l-100 -125q110 -135 110 -340q0 -231 -116.5 -361.5t-321.5 -130.5q-168 0 -281 101l-102 -125zM190 461q0 -155 64 -256l469 569q-85 88 -215 88q-146 0 -232 -106t-86 -295z M293 156q90 -90 219 -90q144 0 230.5 106t86.5 293q0 157 -65 258z" />
<glyph unicode="&#xf9;" horiz-adv-x="1136" d="M41 842v82h264v-629q0 -121 51.5 -177.5t161.5 -56.5q130 0 215.5 85t85.5 219v477h-174v82h283v-842h155v-82h-264v139q-66 -85 -142.5 -124.5t-176.5 -39.5q-158 0 -230.5 77.5t-72.5 242.5v547h-156zM313 1407h133l216 -348h-80z" />
<glyph unicode="&#xfa;" horiz-adv-x="1136" d="M41 842v82h264v-629q0 -121 51.5 -177.5t161.5 -56.5q130 0 215.5 85t85.5 219v477h-174v82h283v-842h155v-82h-264v139q-66 -85 -142.5 -124.5t-176.5 -39.5q-158 0 -230.5 77.5t-72.5 242.5v547h-156zM420 1059l215 348h133l-268 -348h-80z" />
<glyph unicode="&#xfb;" horiz-adv-x="1136" d="M41 842v82h264v-629q0 -121 51.5 -177.5t161.5 -56.5q130 0 215.5 85t85.5 219v477h-174v82h283v-842h155v-82h-264v139q-66 -85 -142.5 -124.5t-176.5 -39.5q-158 0 -230.5 77.5t-72.5 242.5v547h-156zM266 1059l209 348h131l207 -348h-80l-192 276l-193 -276h-82z" />
<glyph unicode="&#xfc;" horiz-adv-x="1136" d="M41 842v82h264v-629q0 -121 51.5 -177.5t161.5 -56.5q130 0 215.5 85t85.5 219v477h-174v82h283v-842h155v-82h-264v139q-66 -85 -142.5 -124.5t-176.5 -39.5q-158 0 -230.5 77.5t-72.5 242.5v547h-156zM297 1141v133h129v-133h-129zM655 1141v133h129v-133h-129z" />
<glyph unicode="&#xfd;" horiz-adv-x="985" d="M14 842v82h351v-82h-156l291 -711l286 711h-149v82h336v-82h-74l-399 -961q-24 -57 -38 -87t-36.5 -65t-44.5 -51t-55 -27t-76 -11q-50 0 -129 12v86q25 0 60 -6t46 -6q65 0 100 39.5t74 134.5l45 108l-350 834h-82zM373 1059l215 348h133l-268 -348h-80z" />
<glyph unicode="&#xfe;" horiz-adv-x="1112" d="M41 1241v82h266v-545q64 88 142.5 129t179.5 41q178 0 291.5 -131t113.5 -352q0 -217 -114 -348t-295 -131q-193 0 -318 168v-400h160v-86h-414v86h144v1487h-156zM307 471q0 -187 83 -296t220 -109q140 0 226 109.5t86 297.5q0 181 -85 285t-225 104q-138 0 -221.5 -105 t-83.5 -286z" />
<glyph unicode="&#xff;" horiz-adv-x="985" d="M14 842v82h351v-82h-156l291 -711l286 711h-149v82h336v-82h-74l-399 -961q-24 -57 -38 -87t-36.5 -65t-44.5 -51t-55 -27t-76 -11q-50 0 -129 12v86q25 0 60 -6t46 -6q65 0 100 39.5t74 134.5l45 108l-350 834h-82zM250 1141v133h129v-133h-129zM608 1141v133h129v-133 h-129z" />
<glyph unicode="&#x152;" horiz-adv-x="2070" d="M82 662q0 329 171.5 509.5t481.5 180.5q91 0 219 -14.5t168 -14.5h807v-389h-98v303h-649v-516h336v213h96v-514h-96v213h-336v-543h649v330h98v-420h-807q-42 0 -174 -14.5t-219 -14.5q-307 0 -477 181t-170 510zM205 664q0 -299 142.5 -452t422.5 -153q115 0 293 31 v1147q-178 31 -293 31q-280 0 -422.5 -152.5t-142.5 -451.5z" />
<glyph unicode="&#x153;" horiz-adv-x="1761" d="M76 463q0 227 116.5 356t317.5 129q131 0 222 -55t151 -170q113 225 379 225q195 0 307 -129.5t112 -359.5v-17h-741q6 -184 91 -282.5t235 -98.5q123 0 202 58t99 164h90q-17 -143 -118.5 -225.5t-264.5 -82.5q-142 0 -245 61t-146 167q-72 -117 -162.5 -172.5 t-210.5 -55.5q-200 0 -317 130t-117 358zM190 465q0 -187 87 -293t233 -106t232.5 106t86.5 293t-86.5 292t-232.5 105q-147 0 -233.5 -105t-86.5 -292zM940 526h625q-10 165 -91 250.5t-223 85.5q-132 0 -211.5 -85.5t-99.5 -250.5z" />
<glyph unicode="&#x178;" horiz-adv-x="1208" d="M14 1237v86h389v-86h-165l364 -575l371 575h-166v86h387v-86h-88l-453 -684v-467h217v-86h-551v86h216v467l-433 684h-88zM360 1544v133h129v-133h-129zM719 1544v133h129v-133h-129z" />
<glyph unicode="&#x2c6;" d="M238 1059l208 348h132l206 -348h-79l-193 276l-193 -276h-81z" />
<glyph unicode="&#x2dc;" d="M227 1124q47 170 183 170q40 0 69 -10l86 -29q24 -8 56 -8q62 0 102 70h72q-52 -172 -181 -172q-32 0 -75 12l-88 27q-24 8 -56 8q-58 0 -96 -68h-72z" />
<glyph unicode="&#x2000;" horiz-adv-x="927" />
<glyph unicode="&#x2001;" horiz-adv-x="1855" />
<glyph unicode="&#x2002;" horiz-adv-x="927" />
<glyph unicode="&#x2003;" horiz-adv-x="1855" />
<glyph unicode="&#x2004;" horiz-adv-x="618" />
<glyph unicode="&#x2005;" horiz-adv-x="463" />
<glyph unicode="&#x2006;" horiz-adv-x="309" />
<glyph unicode="&#x2007;" horiz-adv-x="309" />
<glyph unicode="&#x2008;" horiz-adv-x="231" />
<glyph unicode="&#x2009;" horiz-adv-x="371" />
<glyph unicode="&#x200a;" horiz-adv-x="103" />
<glyph unicode="&#x2010;" horiz-adv-x="669" d="M98 420v98h473v-98h-473z" />
<glyph unicode="&#x2011;" horiz-adv-x="669" d="M98 420v98h473v-98h-473z" />
<glyph unicode="&#x2012;" horiz-adv-x="669" d="M98 420v98h473v-98h-473z" />
<glyph unicode="&#x2013;" d="M0 428v80h1024v-80h-1024z" />
<glyph unicode="&#x2014;" horiz-adv-x="2048" d="M0 428v80h2048v-80h-2048z" />
<glyph unicode="&#x2018;" horiz-adv-x="516" d="M188 926v141l93 256h77l-92 -260h60v-137h-138z" />
<glyph unicode="&#x2019;" horiz-adv-x="516" d="M154 924l92 260h-60v139h138v-143l-93 -256h-77z" />
<glyph unicode="&#x201a;" horiz-adv-x="516" d="M156 -256l94 260h-62v137h138v-141l-93 -256h-77z" />
<glyph unicode="&#x201c;" horiz-adv-x="843" d="M188 926v141l93 256h77l-92 -260h60v-137h-138zM516 926v141l92 256h78l-92 -260h59v-137h-137z" />
<glyph unicode="&#x201d;" horiz-adv-x="843" d="M156 924l92 260h-60v139h138v-143l-93 -256h-77zM481 924l94 260h-61v139h139v-143l-94 -256h-78z" />
<glyph unicode="&#x201e;" horiz-adv-x="843" d="M156 -256l94 260h-62v137h138v-141l-93 -256h-77zM483 -256l92 260h-59v137h137v-141l-92 -256h-78z" />
<glyph unicode="&#x2022;" horiz-adv-x="1208" d="M307 762q0 123 87 209t210 86q122 0 208.5 -86t86.5 -209q0 -122 -87 -209.5t-210 -87.5t-209 87t-86 210z" />
<glyph unicode="&#x2026;" horiz-adv-x="2048" d="M272 0v141h138v-141h-138zM954 0v141h138v-141h-138zM1638 0v141h138v-141h-138z" />
<glyph unicode="&#x202f;" horiz-adv-x="371" />
<glyph unicode="&#x2039;" horiz-adv-x="483" d="M111 467l163 403h97l-162 -403l162 -401h-97z" />
<glyph unicode="&#x203a;" horiz-adv-x="483" d="M111 66l163 401l-163 403h98l162 -403l-162 -401h-98z" />
<glyph unicode="&#x205f;" horiz-adv-x="463" />
<glyph unicode="&#x20ac;" horiz-adv-x="1032" d="M-14 506l16 63h133q-2 31 -2 95q0 34 4 96h-151l16 61h141q31 248 153 388.5t302 140.5q198 0 289 -146v117h94v-367h-94q-8 132 -85.5 219t-199.5 87q-139 0 -226.5 -119t-113.5 -320h574l-17 -61h-563q-4 -62 -4 -96q0 -64 2 -95h514l-16 -63h-492q24 -210 113 -327.5 t235 -117.5q112 0 181.5 87.5t78.5 218.5h113q-22 -200 -117.5 -298t-273.5 -98q-188 0 -304.5 141.5t-144.5 393.5h-155z" />
<glyph unicode="&#x2122;" horiz-adv-x="1705" d="M274 1403v51h420v-51h-174v-479h-67v479h-179zM825 924v530h101l174 -440l162 440h102v-530h-59v479l-181 -479h-49l-190 479v-479h-60z" />
<glyph unicode="&#xe000;" horiz-adv-x="921" d="M0 0v922h922v-922h-922z" />
<glyph unicode="&#xfb01;" horiz-adv-x="1093" d="M74 0v86h157v758h-157v80h157v43q0 194 80.5 286.5t253.5 92.5q152 0 235.5 -71t86.5 -202h-117q-6 92 -58 139.5t-145 47.5q-120 0 -173.5 -67t-53.5 -208v-61h545v-838h157v-86h-440v86h174v758h-436v-758h172v-86h-438z" />
<glyph unicode="&#xfb02;" horiz-adv-x="1095" d="M74 0v86h157v758h-157v80h157v90q0 179 84 256.5t273 77.5q74 0 297 -25v-1237h157v-86h-440v86h174v1163q-139 15 -192 15q-132 0 -188 -57.5t-56 -192.5v-90h223v-80h-223v-758h172v-86h-438z" />
</font>
</defs>
</svg>
