<svg xmlns="http://www.w3.org/2000/svg" xmlns:xlink="http://www.w3.org/1999/xlink" viewBox="0 0 160 46.559">
  <defs>
    <style>
      .cls-1 {
        fill: none;
      }

      .cls-2 {
        clip-path: url(#clip-path);
      }

      .cls-3 {
        fill: #fff;
      }

      .cls-4 {
        fill: #101f40;
      }

      .cls-5 {
        clip-path: url(#clip-path-2);
      }
    </style>
    <clipPath id="clip-path">
      <path id="Path_209" data-name="Path 209" class="cls-1" d="M.006,12.082H160V-34.477H.006Z" transform="translate(-0.006 34.477)"/>
    </clipPath>
    <clipPath id="clip-path-2">
      <path id="Path_217" data-name="Path 217" class="cls-1" d="M0,12.082H160V-34.477H0Z" transform="translate(0 34.477)"/>
    </clipPath>
  </defs>
  <g id="Group_1518" data-name="Group 1518" transform="translate(-60 -84)">
    <g id="Group_37" data-name="Group 37" class="cls-2" transform="translate(60.008 84)">
      <g id="Group_35" data-name="Group 35" transform="translate(0.536 0.543)">
        <path id="Path_207" data-name="Path 207" class="cls-3" d="M5.9,11.806A22.646,22.646,0,0,1-16.716-8.745,22.589,22.589,0,0,1-11.638-25.4,22.6,22.6,0,0,1,3.727-33.58c.737-.072,1.484-.109,2.221-.109A22.648,22.648,0,0,1,28.561-13.136,22.77,22.77,0,0,1,8.118,11.7c-.737.072-1.485.108-2.221.108" transform="translate(16.825 33.689)"/>
      </g>
      <g id="Group_36" data-name="Group 36" transform="translate(-0.008 0)">
        <path id="Path_208" data-name="Path 208" class="cls-4" d="M6.051.282a22.2,22.2,0,0,1,2.116,44.3c-.728.072-1.453.105-2.169.105A22.2,22.2,0,0,1,3.882.388C4.61.318,5.335.282,6.051.282m0-1.088h0C5.3-.806,4.53-.77,3.777-.7A23.314,23.314,0,0,0-17.156,24.732,23.291,23.291,0,0,0,6,45.776c.755,0,1.519-.036,2.274-.111a23.136,23.136,0,0,0,15.733-8.378,23.135,23.135,0,0,0,5.2-17.051A23.291,23.291,0,0,0,6.054-.806" transform="translate(17.266 0.806)"/>
      </g>
    </g>
    <g id="Group_45" data-name="Group 45" class="cls-5" transform="translate(60 84)">
      <g id="Group_38" data-name="Group 38" transform="translate(4.621 6.151)">
        <path id="Path_210" data-name="Path 210" class="cls-4" d="M.449,6.507c3.557,7.7,11.129,10.786,15.8,10.786,9.681,0,14.049-9.4,13.73-15.233A14.517,14.517,0,0,1,23.56,7.907,14.658,14.658,0,0,1,4.094.778,13.631,13.631,0,0,1,3.515-.737a1.3,1.3,0,0,1-.074-.184c-.031-.1-.059-.212-.086-.32-.012-.039-.026-.078-.038-.119l0-.011a15.573,15.573,0,0,1,6.839-17.2c-.208.088-.417.177-.625.273A18.687,18.687,0,0,0,.449,6.507" transform="translate(1.282 18.567)"/>
      </g>
      <g id="Group_39" data-name="Group 39" transform="translate(57.767 12.316)">
        <path id="Path_211" data-name="Path 211" class="cls-3" d="M1.169,2.589c-3.1-1.155-4.2-2.677-4.2-5.045,0-3.1,2.394-4.932,6.115-4.932a13.891,13.891,0,0,1,4.257.7l1.41.451a.236.236,0,0,1,.169.338l-.4,1.156a.22.22,0,0,1-.309.142L6.862-5.021a12.049,12.049,0,0,0-3.777-.591C.549-5.612-1.142-4.4-1.142-2.456c0,1.3.591,2.509,3.044,3.41L5.791,2.42c2.648.987,4.255,2.311,4.255,4.875,0,3.355-2.847,5.3-6.793,5.3a14.458,14.458,0,0,1-5.3-.957l-1.128-.423a.22.22,0,0,1-.14-.311l.423-1.156c.055-.169.169-.224.309-.169L-1.453,10a13.129,13.129,0,0,0,4.706.845C5.9,10.847,8.13,9.579,8.13,7.3c0-1.661-1.437-2.62-3.044-3.241Z" transform="translate(3.335 7.388)"/>
      </g>
      <g id="Group_40" data-name="Group 40" transform="translate(73.284 14.371)">
        <path id="Path_212" data-name="Path 212" class="cls-3" d="M1.69,1.072a.223.223,0,0,1,.253.253V2.481a.225.225,0,0,1-.253.255H-1.439v8.539c0,1.213.536,1.888,1.495,1.888a2.381,2.381,0,0,0,.732-.142.257.257,0,0,1,.338.142l.481,1.043a.239.239,0,0,1-.113.339,3.365,3.365,0,0,1-1.437.309c-2.086,0-3.326-1.3-3.326-3.55V2.736h-1.3a.225.225,0,0,1-.254-.255V1.325a.223.223,0,0,1,.254-.253h1.3V-2.309a.254.254,0,0,1,.2-.284l1.353-.45c.169-.057.281.028.281.224V1.072Z" transform="translate(4.821 3.06)"/>
      </g>
      <g id="Group_41" data-name="Group 41" transform="translate(82.564 18.221)">
        <path id="Path_213" data-name="Path 213" class="cls-3" d="M2.4,3.54a9.917,9.917,0,0,1-3.044.424c-3.889,0-6.2-2.706-6.2-7.047,0-4.312,2.339-7.018,6.172-7.018,3.186,0,5.1,1.55,5.1,4.172C4.429-3.956,3.187-2.8.651-2.378l-5.495.9a4.022,4.022,0,0,0,4.2,3.749,8.572,8.572,0,0,0,2.621-.366l.845-.254a.268.268,0,0,1,.339.2L3.5,2.977c.03.169-.027.282-.2.311ZM.342-3.928C1.834-4.182,2.6-4.83,2.6-5.9,2.6-7.48,1.385-8.409-.7-8.409c-2.621,0-4.2,1.774-4.285,5.383Z" transform="translate(6.845 10.101)"/>
      </g>
      <g id="Group_42" data-name="Group 42" transform="translate(96.501 18.221)">
        <path id="Path_214" data-name="Path 214" class="cls-3" d="M2.4,3.54a9.917,9.917,0,0,1-3.044.424c-3.889,0-6.2-2.706-6.2-7.047,0-4.312,2.339-7.018,6.172-7.018,3.186,0,5.1,1.55,5.1,4.172C4.429-3.956,3.187-2.8.651-2.378l-5.495.9a4.022,4.022,0,0,0,4.2,3.749,8.572,8.572,0,0,0,2.621-.366l.847-.254a.267.267,0,0,1,.338.2L3.5,2.977c.028.169-.028.282-.2.311ZM.342-3.928C1.836-4.182,2.6-4.83,2.6-5.9,2.6-7.48,1.385-8.409-.7-8.409c-2.621,0-4.2,1.774-4.285,5.383Z" transform="translate(6.845 10.101)"/>
      </g>
      <g id="Group_43" data-name="Group 43" transform="translate(111.986 12.179)">
        <path id="Path_215" data-name="Path 215" class="cls-3" d="M.476,4.542c0,.62.253,1.014.733,1.014a.769.769,0,0,0,.253-.028.221.221,0,0,1,.311.142l.479,1.1a.249.249,0,0,1-.142.339,3.149,3.149,0,0,1-.9.14,2.413,2.413,0,0,1-2.566-2.7V-12.707a.225.225,0,0,1,.254-.254H.223a.224.224,0,0,1,.253.254Z" transform="translate(1.357 12.961)"/>
      </g>
      <g id="Group_44" data-name="Group 44" transform="translate(119.493 12.613)">
        <path id="Path_216" data-name="Path 216" class="cls-3" d="M2.757,2.231a.224.224,0,0,1,.254.253V3.667a.225.225,0,0,1-.254.255H-6.007v7.413H4.815a.224.224,0,0,1,.254.253v1.184a.225.225,0,0,1-.254.254H-7.614a.225.225,0,0,1-.254-.254V-6.112a.224.224,0,0,1,.254-.253H4.7c.2,0,.282.112.226.281L4.562-4.9a.252.252,0,0,1-.282.226H-6.007v6.9Z" transform="translate(7.868 6.365)"/>
      </g>
    </g>
    <g id="Group_48" data-name="Group 48" class="cls-5" transform="translate(60 84)">
      <g id="Group_46" data-name="Group 46" transform="translate(134.071 18.504)">
        <path id="Path_218" data-name="Path 218" class="cls-3" d="M1.223,5a.273.273,0,0,1-.282.2H-.441c-.2,0-.282-.113-.2-.311L1.307.513A5.908,5.908,0,0,0,.912-4.165l-4.369-9.781c-.085-.2,0-.308.2-.308h1.409a.27.27,0,0,1,.282.2L1.786-6.646a20.033,20.033,0,0,1,1.043,3.1c.057.253.282.253.366,0a26.564,26.564,0,0,1,1.128-3.1l3.3-7.413a.271.271,0,0,1,.282-.2H9.339c.17,0,.254.112.17.308Z" transform="translate(3.489 14.254)"/>
      </g>
      <g id="Group_47" data-name="Group 47" transform="translate(148.728 18.221)">
        <path id="Path_219" data-name="Path 219" class="cls-3" d="M2.4,3.54a9.908,9.908,0,0,1-3.043.424c-3.889,0-6.2-2.706-6.2-7.047,0-4.312,2.338-7.018,6.17-7.018,3.186,0,5.1,1.55,5.1,4.172C4.43-3.956,3.188-2.8.651-2.378l-5.495.9a4.023,4.023,0,0,0,4.2,3.749,8.569,8.569,0,0,0,2.62-.366l.847-.254a.267.267,0,0,1,.338.2L3.5,2.977c.028.169-.027.282-.2.311ZM.343-3.928C1.835-4.182,2.6-4.83,2.6-5.9,2.6-7.48,1.384-8.409-.7-8.409c-2.621,0-4.2,1.774-4.285,5.383Z" transform="translate(6.844 10.101)"/>
      </g>
    </g>
    <g id="Group_51" data-name="Group 51" class="cls-5" transform="translate(60 84)">
      <g id="Group_49" data-name="Group 49" transform="translate(18.011 18.102)">
        <path id="Path_221" data-name="Path 221" class="cls-4" d="M1.37,0A5.276,5.276,0,1,1-3.91,5.276,5.278,5.278,0,0,1,1.37,0" transform="translate(3.91)"/>
      </g>
      <g id="Group_50" data-name="Group 50" transform="translate(10.684 4.693)">
        <path id="Path_222" data-name="Path 222" class="cls-4" d="M7.668,2.8C4.111-4.9-3.461-7.987-8.135-7.987c-9.681,0-14.05,9.4-13.73,15.233A14.524,14.524,0,0,1-15.442,1.4,14.658,14.658,0,0,1,4.023,8.528,13.631,13.631,0,0,1,4.6,10.043a1.308,1.308,0,0,1,.076.184c.03.1.058.212.085.32.012.039.026.078.038.119,0,0,0,.007,0,.011a15.573,15.573,0,0,1-6.839,17.2c.208-.088.417-.176.625-.273A18.687,18.687,0,0,0,7.668,2.8" transform="translate(21.881 7.987)"/>
      </g>
    </g>
  </g>
</svg>
